<?xml version="1.0" encoding="utf-8"?>
<!-- Generator: Adobe Illustrator 24.0.1, SVG Export Plug-In . SVG Version: 6.00 Build 0)  -->
<svg version="1.1" id="Layer_1" xmlns="http://www.w3.org/2000/svg" xmlns:xlink="http://www.w3.org/1999/xlink" x="0px" y="0px"
	 viewBox="0 0 420 100" style="enable-background:new 0 0 420 100;" xml:space="preserve">
<style type="text/css">
	.st0{fill:#231F20;}
</style>
<g>
	<polygon class="st0" points="88.3,63.4 91.5,63.4 91.5,35 88.3,35 88.3,33.4 97.1,33.4 97.1,35 93.4,35 93.4,63.4 106.7,63.4 
		107.1,58.3 108.6,58.3 108.6,65.1 88.3,65.1 	"/>
	<path class="st0" d="M170.1,49.2c0-8.3-6.1-14.5-14.3-14.5c-8.2,0-14.3,6.2-14.3,14.5s6.1,14.5,14.3,14.5
		C164,63.7,170.1,57.5,170.1,49.2 M139.6,49.2c0-9.7,7.3-16.2,16.2-16.2c9,0,16.2,6.6,16.2,16.2s-7.3,16.2-16.2,16.2
		C146.9,65.4,139.6,58.9,139.6,49.2"/>
	<polygon class="st0" points="224,39.4 223.7,35 209,35 209,49 222.6,49 222.6,50.7 209,50.7 209,63.4 212.7,63.4 212.7,65.1 
		203.9,65.1 203.9,63.4 207.1,63.4 207.1,35 203.9,35 203.9,33.4 225.6,33.4 225.6,39.4 	"/>
	<polygon class="st0" points="257.2,39.8 257.2,33.4 280.2,33.4 280.2,39.8 278.6,39.8 278.3,35 269.7,35 269.7,63.4 273.3,63.4 
		273.3,65.1 264.1,65.1 264.1,63.4 267.8,63.4 267.8,35 259.1,35 258.8,39.8 	"/>
	<path class="st0" d="M327.3,40.6c-0.3-4-3.2-6-6.5-6c-3.7,0-5.9,2.1-5.9,5.4c0,3.2,1.6,4.7,5.5,6.5l2.9,1.4c5.1,2.3,7.6,5,7.6,9.4
		c0,4.9-3.9,8.1-9.2,8.1c-4.4,0-7.2-2-8.3-4.2l-0.1,3.8h-1.6v-8.4h1.8c0.7,4.8,3.6,7.1,8.3,7.1c4,0,7.4-2.4,7.4-6.4
		c0-3.7-2.1-5.6-6.5-7.7l-2.9-1.4c-4.4-2.1-6.6-4.2-6.6-8.2c0-4.4,3.5-7.1,7.8-7.1c3.2,0,5.5,1.4,6.5,3.5l0.1-3.1h1.6v7.3H327.3z"/>
	<polygon class="st0" points="9.6,13.3 9.6,86.4 134.6,86.4 134.6,85.3 10.7,85.3 10.7,14.4 158.5,14.4 158.5,13.3 	"/>
	<polygon class="st0" points="260.6,13.3 260.6,14.4 408.5,14.4 408.5,85.3 284.6,85.3 284.6,86.4 409.6,86.4 409.6,13.3 	"/>
	<path class="st0" d="M162.8,87l-1.6-3.9c-0.2-0.5-0.4-1.2-0.4-1.2c0,0-0.2,0.7-0.4,1.2l-1.6,3.9H162.8z M160.8,79.9h0.2l4.3,10.3
		h-1.1l-0.9-2.3h-4.7l-0.9,2.3h-1.1L160.8,79.9z"/>
	<polygon class="st0" points="173,80 173,81 176.2,81 176.2,90.2 177.2,90.2 177.2,81 180.4,81 180.4,80 	"/>
	<path class="st0" d="M200.8,80h1.2l2.1,6.8c0.1,0.4,0.3,1,0.3,1.1c0-0.1,0.2-0.7,0.3-1.1l2.7-6.9h0.2l2.7,6.9
		c0.2,0.4,0.3,1,0.3,1.1c0-0.1,0.2-0.7,0.3-1.1L213,80h1.1l-3.4,10.3h-0.2l-2.7-7.3c-0.2-0.4-0.3-0.9-0.3-1c0,0-0.2,0.6-0.3,1
		l-2.8,7.3h-0.2L200.8,80z"/>
	<polygon class="st0" points="223.9,80 223.9,90.2 230.3,90.2 230.3,89.3 225,89.3 225,85.6 229.5,85.6 229.5,84.6 225,84.6 225,81 
		230.1,81 230.1,80 	"/>
	<path class="st0" d="M239.5,88.3l0.9-0.5c0.5,0.9,1.2,1.6,2.6,1.6c1.2,0,2.1-0.7,2.1-1.7c0-1-0.6-1.6-1.9-2.1l-0.8-0.4
		c-1.5-0.7-2.3-1.4-2.3-2.8c0-1.5,1.2-2.4,2.7-2.4c1.4,0,2.2,0.6,2.8,1.5l-0.9,0.5c-0.4-0.6-0.9-1.1-1.9-1.1c-1,0-1.6,0.6-1.6,1.5
		c0,0.9,0.5,1.3,1.6,1.8l0.8,0.4c1.7,0.7,2.6,1.6,2.6,3.1c0,1.7-1.3,2.7-3.2,2.7C241.1,90.3,240.1,89.4,239.5,88.3"/>
	<polygon class="st0" points="255.3,80 255.3,81 258.4,81 258.4,90.2 259.5,90.2 259.5,81 262.6,81 262.6,80 	"/>
	<polygon class="st0" points="188.6,9.1 188.6,10 191.8,10 191.8,19.3 192.8,19.3 192.8,10 196,10 196,9.1 	"/>
	<polygon class="st0" points="212.3,9.1 212.3,13.8 206.9,13.8 206.9,9.1 205.8,9.1 205.8,19.3 206.9,19.3 206.9,14.8 212.3,14.8 
		212.3,19.3 213.4,19.3 213.4,9.1 	"/>
	<polygon class="st0" points="224.1,9.1 224.1,19.3 230.5,19.3 230.5,18.3 225.2,18.3 225.2,14.6 229.8,14.6 229.8,13.7 225.2,13.7 
		225.2,10 230.3,10 230.3,9.1 	"/>
</g>
</svg>
